<?xml version="1.0" encoding="UTF-8" standalone="no"?>
<!-- Created with Inkscape (http://www.inkscape.org/) -->

<svg
   xmlns:dc="http://purl.org/dc/elements/1.1/"
   xmlns:cc="http://creativecommons.org/ns#"
   xmlns:rdf="http://www.w3.org/1999/02/22-rdf-syntax-ns#"
   xmlns:svg="http://www.w3.org/2000/svg"
   xmlns="http://www.w3.org/2000/svg"
   xmlns:xlink="http://www.w3.org/1999/xlink"
   xmlns:sodipodi="http://sodipodi.sourceforge.net/DTD/sodipodi-0.dtd"
   xmlns:inkscape="http://www.inkscape.org/namespaces/inkscape"
   width="121.24834"
   height="140.00552"
   viewBox="0 0 121.24834 140.00552"
   version="1.1"
   id="SVGRoot"
   inkscape:version="0.92.4 (5da689c313, 2019-01-14)"
   sodipodi:docname="purrrogress.svg"
   inkscape:export-filename="C:\Users\u0092104\Dropbox\R\purrrogress\man\figures\logo.png"
   inkscape:export-xdpi="95.800003"
   inkscape:export-ydpi="95.800003">
  <defs
     id="defs6914">
    <linearGradient
       inkscape:collect="always"
       id="linearGradient7620">
      <stop
         style="stop-color:#d38d5f;stop-opacity:0.00859599"
         offset="0"
         id="stop7616" />
      <stop
         style="stop-color:#4ccdff;stop-opacity:1"
         offset="1"
         id="stop7618" />
    </linearGradient>
    <radialGradient
       inkscape:collect="always"
       xlink:href="#linearGradient7620"
       id="radialGradient7622"
       cx="70"
       cy="70"
       fx="70"
       fy="70"
       r="60.624168"
       gradientTransform="matrix(1,0,0,1.1547005,0,-10.829037)"
       gradientUnits="userSpaceOnUse" />
  </defs>
  <sodipodi:namedview
     id="base"
     pagecolor="#ffffff"
     bordercolor="#666666"
     borderopacity="1.0"
     inkscape:pageopacity="0.0"
     inkscape:pageshadow="2"
     inkscape:zoom="8"
     inkscape:cx="45.054071"
     inkscape:cy="66.98234"
     inkscape:document-units="px"
     inkscape:current-layer="layer1"
     showgrid="false"
     inkscape:window-width="3840"
     inkscape:window-height="2035"
     inkscape:window-x="3827"
     inkscape:window-y="-13"
     inkscape:window-maximized="1"
     inkscape:grid-bbox="true"
     fit-margin-top="0"
     fit-margin-left="0"
     fit-margin-right="0"
     fit-margin-bottom="0" />
  <metadata
     id="metadata6917">
    <rdf:RDF>
      <cc:Work
         rdf:about="">
        <dc:format>image/svg+xml</dc:format>
        <dc:type
           rdf:resource="http://purl.org/dc/dcmitype/StillImage" />
        <dc:title></dc:title>
      </cc:Work>
    </rdf:RDF>
    <rdf:RDF>
      <cc:Work
         rdf:about="">
        <dc:title></dc:title>
      </cc:Work>
    </rdf:RDF>
  </metadata>
  <g
     inkscape:label="Layer 1"
     inkscape:groupmode="layer"
     id="layer1"
     transform="translate(-9.3758325,0.00275865)">
    <path
       sodipodi:type="star"
       style="opacity:1;fill:url(#radialGradient7622);fill-opacity:1;fill-rule:nonzero;stroke:#333333;stroke-width:2.92157483;stroke-linecap:round;stroke-linejoin:miter;stroke-miterlimit:4;stroke-dasharray:none;stroke-dashoffset:0;stroke-opacity:1"
       id="path6208"
       sodipodi:sides="6"
       sodipodi:cx="70"
       sodipodi:cy="70"
       sodipodi:r1="68.315987"
       sodipodi:r2="59.16338"
       sodipodi:arg1="0.52359878"
       sodipodi:arg2="1.0471976"
       inkscape:flatsided="true"
       inkscape:rounded="0"
       inkscape:randomized="0"
       d="M 129.16338,104.15799 70,138.31599 l -59.16338,-34.158 0,-68.315984 L 70,1.6840134 129.16338,35.842007 Z" />
    <text
       xml:space="preserve"
       style="font-style:normal;font-weight:normal;font-size:16.41517067px;line-height:1.25;font-family:sans-serif;letter-spacing:0px;word-spacing:0px;fill:#000000;fill-opacity:1;stroke:none;stroke-width:1.53892207"
       x="22.513828"
       y="102.83589"
       id="text7496"><tspan
         sodipodi:role="line"
         id="tspan7494"
         x="22.513828"
         y="102.83589"
         style="stroke-width:1.53892207">purrrogress</tspan></text>
    <g
       id="g7678"
       transform="matrix(0.94085514,0,0,1.046326,2.7121135,-5.1527098)">
      <rect
         ry="4.2426405"
         y="69.115311"
         x="21.239326"
         height="12.904698"
         width="97.521347"
         id="rect7626"
         style="fill:#ffffff;fill-opacity:0.74785102;fill-rule:evenodd;stroke:#333333;stroke-width:1.18274784;stroke-miterlimit:4;stroke-dasharray:none;stroke-opacity:1" />
      <rect
         ry="0"
         y="70.794685"
         x="24.667015"
         height="9.6343298"
         width="5.6568537"
         id="rect7628"
         style="fill:#00ff00;fill-opacity:0.74785102;fill-rule:evenodd;stroke:none;stroke-width:1.00452328;stroke-miterlimit:4;stroke-dasharray:none;stroke-opacity:1" />
      <rect
         style="fill:#00ff00;fill-opacity:0.74785102;fill-rule:evenodd;stroke:none;stroke-width:1.00452328;stroke-miterlimit:4;stroke-dasharray:none;stroke-opacity:1"
         id="rect7630"
         width="5.6568537"
         height="9.6343298"
         x="31.704937"
         y="70.794685"
         ry="0" />
      <rect
         ry="0"
         y="70.794685"
         x="38.742859"
         height="9.6343298"
         width="5.6568537"
         id="rect7632"
         style="fill:#00ff00;fill-opacity:0.74785102;fill-rule:evenodd;stroke:none;stroke-width:1.00452328;stroke-miterlimit:4;stroke-dasharray:none;stroke-opacity:1" />
      <rect
         style="fill:#00ff00;fill-opacity:0.74785102;fill-rule:evenodd;stroke:none;stroke-width:1.00452328;stroke-miterlimit:4;stroke-dasharray:none;stroke-opacity:1"
         id="rect7634"
         width="5.6568537"
         height="9.6343298"
         x="45.780781"
         y="70.794685"
         ry="0" />
      <rect
         ry="0"
         y="70.794685"
         x="52.818699"
         height="9.6343298"
         width="5.6568537"
         id="rect7636"
         style="fill:#00ff00;fill-opacity:0.74785102;fill-rule:evenodd;stroke:none;stroke-width:1.00452328;stroke-miterlimit:4;stroke-dasharray:none;stroke-opacity:1" />
      <rect
         style="fill:#00ff00;fill-opacity:0.74785102;fill-rule:evenodd;stroke:none;stroke-width:1.00452328;stroke-miterlimit:4;stroke-dasharray:none;stroke-opacity:1"
         id="rect7638"
         width="5.6568537"
         height="9.6343298"
         x="59.856621"
         y="70.794685"
         ry="0" />
      <rect
         ry="0"
         y="70.794685"
         x="66.894547"
         height="9.6343298"
         width="5.6568537"
         id="rect7640"
         style="fill:#00ff00;fill-opacity:0.74785102;fill-rule:evenodd;stroke:none;stroke-width:1.00452328;stroke-miterlimit:4;stroke-dasharray:none;stroke-opacity:1" />
      <rect
         style="fill:#00ff00;fill-opacity:0.74785102;fill-rule:evenodd;stroke:none;stroke-width:1.00452328;stroke-miterlimit:4;stroke-dasharray:none;stroke-opacity:1"
         id="rect7642"
         width="5.6568537"
         height="9.6343298"
         x="73.932465"
         y="70.794685"
         ry="0" />
      <rect
         ry="0"
         y="70.794685"
         x="80.97039"
         height="9.6343298"
         width="5.6568537"
         id="rect7644"
         style="fill:#00ff00;fill-opacity:0.74785102;fill-rule:evenodd;stroke:none;stroke-width:1.00452328;stroke-miterlimit:4;stroke-dasharray:none;stroke-opacity:1" />
    </g>
    <g
       id="g7727"
       transform="matrix(0.13455635,0,0,0.13455635,227.17995,28.009243)">
      <path
         style="fill:#3a3a3a"
         d="m -1456.267,444.08923 c -1.925,-0.22634 -10.925,-2.22036 -20,-4.43115 -17.4451,-4.24984 -26.5347,-8.04169 -35.5,-14.80936 -5.3892,-4.06808 -31.8806,-30.26955 -37.3114,-36.90294 -3.7974,-4.63824 -13.5349,-22.2656 -16.3876,-29.66558 -7.9384,-20.59222 -8.5053,-23.10344 -9.9338,-44 -0.752,-11 -1.2202,-28.55 -1.0405,-39 0.3106,-18.05384 0.4775,-19.44818 3.353,-28 4.8105,-14.30702 7.6792,-18.69166 24.8618,-38 11.4689,-12.88786 26.3819,-27.4797 35.7211,-34.9519 8.5915,-6.87396 12.4182,-9.13821 23.5,-13.90491 7.2806,-3.13164 16.1624,-6.19954 19.7374,-6.81757 4.2443,-0.73375 9.6232,-2.78349 15.5,-5.90664 9.5408,-5.07036 35.2901,-15.63741 44.5,-18.26203 34.0689,-9.70891 71.2763,-17.38937 90.5,-18.68129 8.25,-0.55444 19.5,-1.64424 25,-2.42179 10.9283,-1.54497 14.9874,-2.026 30,-3.55526 10.6313,-1.08296 41.7696,-6.031051 53.5565,-8.510506 11.0044,-2.314848 19.9604,-2.004694 43.9435,1.521806 3.575,0.525672 10.7729,2.31349 15.9953,3.97293 5.2224,1.65944 9.6099,3.01716 9.75,3.01716 0.8809,0 -0.093,-3.73023 -2.2453,-8.595918 -3.0288,-6.848581 -3.1023,-8.549049 -0.4725,-10.928979 1.9765,-1.78872 2.1966,-1.756193 8.75,1.293218 3.6974,1.720449 9.1975,3.875539 12.2225,4.78909 3.025,0.913551 8.2,3.113969 11.5,4.889818 3.3,1.775848 10.5,5.160711 16,7.521911 5.5,2.3612 13.825,6.00559 18.5,8.09865 11.8485,5.30472 13.3097,5.55991 16.9586,2.96168 6.5115,-4.63663 18.4664,-10.14455 24.8503,-11.44915 4.2112,-0.86059 14.4743,-1.42543 27.6911,-1.52399 18.24461,-0.13605 22.18085,0.12117 29.99998,1.9604 4.95,1.16436 10.8,2.95458 13,3.97828 2.2,1.0237 6.7,2.98165 10,4.351 16.22187,6.73136 20.706,8.72909 29.37521,13.08701 5.15636,2.59205 11.71665,6.26745 14.57842,8.16756 l 5.20321,3.45474 7.42158,-3.09746 c 4.08187,-1.70361 8.54658,-3.47138 9.92158,-3.92839 1.375,-0.45701 4.17305,-1.5506 6.21788,-2.4302 4.60003,-1.97873 13.72962,-2.08936 16.31659,-0.19773 3.05404,2.23318 3.3067,14.32944 0.46156,22.09846 -1.20851,3.3 -2.63651,8.21519 -3.17333,10.92265 -1.22133,6.15972 -8.20854,20.1742 -13.99856,28.07735 -3.47296,4.74045 -4.66942,7.46947 -5.69951,13 -0.71709,3.85 -2.44216,11.81798 -3.8335,17.70663 -1.39135,5.88864 -2.24925,11.73864 -1.90647,13 0.34279,1.26135 2.33292,4.25747 4.42251,6.65803 3.31367,3.80681 4.38658,4.40392 8.3946,4.67186 6.88286,0.46014 10.67221,2.75968 24.28374,14.73643 4.92075,4.32975 8.20955,11.14351 9.62705,19.94535 0.90279,5.6058 0.77037,6.43472 -1.96006,12.26951 l -2.92826,6.25754 -9.57058,0.71754 c -18.16377,1.36179 -42.05464,-1.03328 -49.68944,-4.98139 -2.31033,-1.19472 -4.72869,-1.38115 -11.06332,-0.85286 -4.45868,0.37184 -8.51686,1.17001 -9.01817,1.77372 -0.50132,0.6037 -2.8236,4.02264 -5.16062,7.59764 -3.71797,5.68748 -4.87245,6.70873 -9.23562,8.16983 -2.74257,0.9184 -6.87684,1.7059 -9.18727,1.75 -2.31043,0.0441 -6.42987,0.55823 -9.15433,1.14252 -2.72445,0.58429 -20.4091,1.22871 -39.29927,1.43204 -18.8901,0.20334 -40.0473,0.67842 -47.0161,1.05573 -18.2186,0.98642 -24.7162,-0.59278 -35.3447,-8.59023 -8.7764,-6.60381 -11.4966,-7.7312 -14.9058,-6.17785 -1.2504,0.56973 -4.7047,1.28852 -7.6763,1.59732 -2.9715,0.30879 -10.0066,1.07433 -15.6336,1.70119 -7.2088,0.80309 -60.9681,1.18106 -182,1.2796 l -171.7691,0.13985 -6.2128,2.21068 c -3.417,1.21588 -7.917,3.09291 -10,4.17118 -6.8862,3.56471 -20.2872,19.72476 -20.2872,24.46401 0,4.0011 5.7423,13.19884 13.5,21.6237 4.4,4.77839 9.6786,10.75266 11.7303,13.27616 3.8386,4.72122 7.5146,7.10006 12.7481,8.24954 1.6493,0.36223 3.2596,1.0808 3.5785,1.59682 1.1778,1.90566 7.8424,3.90791 13.0078,3.90791 2.9262,0 15.5838,1.32104 28.1279,2.93565 32.82,4.22443 60.6054,5.32627 97.3074,3.85875 43.2741,-1.73031 96.581,-1.54169 124,0.43874 21.6717,1.56533 28.0521,1.67521 42.5,0.7319 12.5163,-0.81719 21.6155,-0.81341 34.5,0.0144 24.1254,1.54995 32.8404,3.18621 41.9484,7.87592 10.7731,5.54707 11.3865,9.06945 3.7431,21.49164 -4.728,7.68394 -20.193,16.90328 -31.2533,18.63135 -17.7005,2.76556 -33.7659,3.4786 -83.4382,3.70326 -179.3978,0.8114 -251.9182,0.98985 -255,0.62747 z"
         id="path7747"
         inkscape:connector-curvature="0" />
      <path
         style="fill:#ffffff"
         d="m -1356.767,439.80333 c 27.5814,-0.57168 45.8173,-0.49901 55.719,0.22203 12.1677,0.88604 18.0613,0.77878 34,-0.6188 15.4433,-1.35412 28.9344,-1.64216 67.781,-1.4471 40.2326,0.20202 51.3064,-0.0514 64.9637,-1.48686 19.8594,-2.0873 22.0168,-2.62939 30.9408,-7.77445 10.9682,-6.32361 17.2647,-14.71257 15.1727,-20.21489 -1.2228,-3.21625 -8.5839,-7.06333 -16.5772,-8.66368 -12.4179,-2.48619 -41.7186,-3.79304 -61.4147,-2.73917 -16.4974,0.88272 -22.5829,0.76808 -40.5,-0.76294 -24.6,-2.10207 -86.2941,-2.30665 -125.5853,-0.41644 -34.4365,1.65666 -69.5945,-0.0157 -107.5,-5.11338 -4.4,-0.59173 -12.9469,-1.52206 -18.9931,-2.06739 -7.6255,-0.68778 -12.2066,-1.62406 -14.9546,-3.05636 -2.1788,-1.13566 -6.2917,-2.93669 -9.1397,-4.00228 -4.2799,-1.6013 -6.4565,-3.43412 -12.5455,-10.56403 -4.0519,-4.74463 -10.1334,-11.64001 -13.5144,-15.32307 -7.4093,-8.07113 -8.8863,-10.81583 -9.6959,-18.01736 -1.0377,-9.2302 0.2814,-11.86158 10.6269,-21.19777 10.7503,-9.70156 13.911,-11.7809 22.7163,-14.94411 l 6.5,-2.33508 172.5,-0.56363 c 153.9085,-0.50289 174.0088,-0.74681 186.5,-2.2632 7.7,-0.93477 14.7875,-1.94896 15.75,-2.25376 2.6557,-0.84101 2.1428,-3.14908 -2.3537,-10.59094 -3.51,-5.80934 -4.0943,-7.57494 -4.0389,-12.20614 0.053,-4.42133 -0.3871,-5.90186 -2.3986,-8.07223 -3.4139,-3.68364 -5.5188,-8.03893 -7.0186,-14.52209 -2.1035,-9.09249 -3.9405,-28.70478 -3.9365,-42.02801 0,-11.90454 0.1511,-12.80964 3.0993,-19 3.5135,-7.37736 10.6355,-18.07489 17.0485,-25.60781 2.3917,-2.8093 4.3485,-6.06037 4.3485,-7.22461 0,-1.30637 -3.5737,-5.85935 -9.3343,-11.89219 -5.1339,-5.37646 -12.6427,-14.05039 -16.6863,-19.27539 -4.0436,-5.225 -8.0557,-10.0567 -8.9157,-10.7371 -2.0961,-1.65824 -25.051,-8.85647 -32.538,-10.20324 -10.256,-1.84489 -32.6621,-3.128993 -38.0257,-2.17927 -2.75,0.48692 -11.975,2.06509 -20.5,3.50703 -8.525,1.44194 -17.75,3.05796 -20.5,3.59115 -2.75,0.53319 -13.9617,1.90685 -24.9148,3.05257 -10.9532,1.14572 -22.0162,2.48165 -24.5845,2.96872 -2.5683,0.48707 -11.9864,1.37128 -20.929,1.96491 -21.0296,1.39599 -51.5982,7.56392 -90.0717,18.17408 -8.2731,2.28155 -37.7599,13.99883 -42.5055,16.89061 -3.064,1.8671 -14.4951,6.09608 -26.8891,9.94775 -24.7996,7.70698 -42.32,21.45064 -74.377,58.34403 -11.0061,12.66655 -14.578,18.67176 -18.724,31.47925 -2.4165,7.46484 -2.6196,9.40182 -2.5075,23.91118 0.1593,20.59897 2.088,58.50985 3.0418,59.78833 0.4103,0.55 1.4811,3.925 2.3795,7.5 2.281,9.07713 14.9792,35.32109 20.4926,42.3533 4.3922,5.60205 18.9512,20.65933 28.2096,29.17497 11.8343,10.88498 20.5341,16.01832 31.8796,18.81073 3.575,0.8799 11.225,2.78605 17,4.2359 15.9489,4.00406 43.53,4.85703 111.5,3.44823 z"
         id="path7745"
         inkscape:connector-curvature="0" />
      <path
         style="fill:#ffffff"
         d="m -1031.9073,305.2802 c 4.2964,-2.2 9.2356,-5.4697 10.9759,-7.26601 1.7404,-1.79631 6.3144,-5.01659 10.1644,-7.15618 8.4784,-4.71178 13.45931,-9.51848 11.69339,-11.2844 -0.65638,-0.65638 -1.19339,-1.89091 -1.19339,-2.74341 0,-1.29736 1.67067,-1.55458 10.24998,-1.57811 8.99439,-0.0247 11.04624,-0.37273 16.75,-2.84134 11.29754,-4.88962 28.29047,-10.73306 29.67126,-10.20321 0.73081,0.28044 1.32874,1.58566 1.32874,2.90049 0,1.3824 1.76403,4.39463 4.18281,7.14251 2.58828,2.94044 4.63471,6.52029 5.36828,9.39079 l 1.18548,4.63887 10.88171,0.0521 c 8.57417,0.0411 12.04804,0.49944 16.38172,2.16149 3.025,1.16014 8.04665,2.42093 11.15922,2.80174 5.21017,0.63745 5.75521,0.51304 6.86891,-1.56794 1.4545,-2.71775 1.80082,-12.27705 0.59587,-16.44743 l -0.86679,-3 2.37139,2.27778 c 2.54601,2.4455 2.98458,6.63056 1.56899,14.97222 l -0.72123,4.25 h 7.04321 c 5.55102,0 7.17405,-0.34098 7.66081,-1.60946 0.56765,-1.47928 0.69046,-1.47928 1.5183,0 0.66978,1.19683 2.41966,1.60946 6.82533,1.60946 5.64845,0 6.00144,-0.14853 7.57227,-3.18619 1.20754,-2.33512 1.51722,-4.81113 1.15934,-9.26949 -0.72602,-9.04465 -4.19764,-15.03955 -12.62461,-21.80057 -9.0738,-7.27993 -12.02429,-8.74371 -17.62451,-8.74371 -4.24035,0 -4.95406,-0.39104 -9.29966,-5.09534 -2.58876,-2.80244 -5.25339,-6.06494 -5.9214,-7.25 -1.85575,-3.29212 -1.49008,-9.20955 1.21456,-19.65466 2.98879,-11.54249 2.99267,-11.6379 0.5,-12.28975 -2.79119,-0.72991 -2.50562,-3.76075 0.75,-7.95986 9.96779,-12.85651 12.79605,-16.94428 16.77927,-24.25159 2.4589,-4.51092 4.47961,-9.28102 4.49046,-10.60023 0.0109,-1.31922 1.36085,-6.20195 3,-10.85052 1.83883,-5.21487 2.98027,-10.44011 2.98027,-13.64301 0,-5.58522 -0.75433,-6.40504 -5.89335,-6.40504 -2.90056,0 -21.2221,7.00263 -30.21988,11.55026 -5.91814,2.99114 -16.88043,10.53225 -18.96944,13.04935 -3.4523,4.15977 -26.23,16.93193 -28.12366,15.76981 -1.58063,-0.97003 0.76746,-3.20347 10.37608,-9.86942 5.54958,-3.85 12.39416,-8.94896 15.21019,-11.33103 2.81603,-2.38207 7.03256,-5.46233 9.37006,-6.84502 2.3375,-1.3827 4.25,-2.89059 4.25,-3.35088 0,-2.24061 -16.53804,-11.17124 -34.5,-18.63019 -6.05,-2.51234 -13.87102,-5.87101 -17.38005,-7.46371 -3.50903,-1.59269 -9.35903,-3.61841 -13,-4.50158 -8.89954,-2.15872 -29.48163,-2.82695 -46.81493,-1.51991 -13.6981,1.03293 -14.4768,1.21404 -22.25,5.17465 -4.4303,2.25734 -8.055,4.56223 -8.055,5.12199 0,0.55976 2.25,1.96834 5,3.13018 9.0083,3.80591 5.5483,5.73846 -5.766,3.22054 -10.6121,-2.36165 -16.6824,-4.28601 -23.734,-7.52398 -3.3,-1.5153 -10.5,-4.66062 -16,-6.9896 -5.5,-2.32898 -13.5264,-6.00441 -17.8365,-8.16763 -4.3101,-2.163223 -10.3851,-4.754421 -13.5,-5.75822 -3.1149,-1.003799 -7.351,-2.560246 -9.4135,-3.45877 -3.5881,-1.563119 -3.75,-1.551917 -3.75,0.259344 0,5.941013 15.5814,27.972136 33.3217,47.114746 15.6012,16.83442 16.6783,18.09426 16.6783,19.50909 0,2.12275 -1.7207,2.72986 -4.1111,1.45055 -1.9133,-1.02399 -2.5797,-0.66816 -6.0004,3.20375 -5.0409,5.70604 -13.181,17.5523 -16.5774,24.12528 -3.6336,7.03197 -4.5703,20.39496 -2.6448,37.7304 2.6832,24.15643 3.8061,28.27996 9.4723,34.7848 2.4185,2.77637 2.8665,4.1694 2.8942,9 0.028,4.85118 0.6766,6.84904 4.2906,13.2152 5.364,9.44871 7.2805,10.49795 19.1766,10.49912 8.5927,8.4e-4 9.0145,-0.10172 9.3218,-2.26647 0.5819,-4.09988 -1.7801,-9.04375 -5.3854,-11.27196 -3.7883,-2.34129 -4.292,-4.35782 -1.7814,-7.13195 2.1208,-2.34352 3.8137,-2.3147 15.345,0.26123 5.225,1.16719 10.5125,2.308 11.75,2.53515 1.8047,0.33125 2.25,1.07763 2.25,3.77149 0,3.98097 -1.3344,5.28859 -6.4902,6.35979 -4.2091,0.87454 -8.1722,5.07507 -7.1938,7.62486 0.7483,1.94992 9.2754,6.36217 17.6215,9.11799 3.5406,1.1691 6.6387,2.72951 6.8848,3.46759 0.7686,2.30588 -8.5794,0.41168 -16.3223,-3.30742 -10.2672,-4.93155 -13.213,-5.65942 -22.9044,-5.65942 -10.6242,0 -10.7272,0.75822 -0.9119,6.70983 8.4104,5.0997 13.7371,6.20116 28.8403,5.96358 10.7423,-0.16898 11.2236,-0.27563 18.8357,-4.17341 z"
         id="path7743"
         inkscape:connector-curvature="0" />
      <path
         style="fill:#3a3a3a"
         d="m -869.56959,276.84514 c -1.62939,-2.81386 -2.18371,-2.30386 -2.39869,-4.88253 3.12184,1.66755 6.35427,12.00927 4.3458,15.69389 -0.24045,0.24044 -1.01352,-9.23092 -1.94711,-10.81136 z"
         id="path7741"
         inkscape:connector-curvature="0"
         sodipodi:nodetypes="cccc" />
      <path
         style="fill:#3a3a3a"
         d="m -1036.2319,256.5302 c 0.067,-4.29677 2.7723,-14.986 4.1384,-16.35206 2.6042,-2.60423 28.2136,-6.4108 30.1439,-4.48056 1.2968,1.29683 -1.1557,2.2238 -13.3174,5.03372 -13.7203,3.17 -13.4104,2.96352 -16.4717,10.97471 -2.7019,7.0709 -4.5594,9.06522 -4.4932,4.82419 z"
         id="path7739"
         inkscape:connector-curvature="0" />
      <path
         style="fill:#3a3a3a"
         d="m -1076.6275,244.08635 c -0.3518,-0.35172 -0.6395,-1.42718 -0.6395,-2.38991 0,-0.96274 -0.8666,-3.77201 -1.9257,-6.24282 -1.6093,-3.75439 -2.9905,-5.08788 -8.4075,-8.11724 -3.565,-1.99366 -9.2234,-4.55071 -12.5743,-5.68232 -5.9368,-2.00488 -7.1773,-3.08541 -5.0509,-4.3996 1.512,-0.93443 14.2897,3.16388 22.052,7.07287 7.4822,3.76801 8.9064,6.09347 8.9064,14.54308 0,4.53925 -0.9463,6.63019 -2.3605,5.21594 z"
         id="path7737"
         inkscape:connector-curvature="0" />
      <path
         style="fill:#ffffff"
         d="m -969.23185,306.23782 c 0.84553,-1.0188 1.61644,-1.20601 2.27096,-0.55149 1.36008,1.36008 13.63639,0.20454 16.44387,-1.54783 1.80886,-1.12906 2.25596,-2.33118 2.28041,-6.13135 0.0248,-3.85904 0.22774,-4.38743 1.10517,-2.87781 0.59112,1.01703 0.81718,3.13708 0.50235,4.71123 -0.31483,1.57414 -0.17777,3.10599 0.30458,3.4041 1.74047,1.07567 3.73489,-0.62943 6.95935,-5.94976 l 3.28351,-5.41777 -1.47805,-6.47979 c -1.14651,-5.02636 -2.45705,-7.6166 -5.84268,-11.54798 -2.40055,-2.7875 -4.63169,-5.06841 -4.95809,-5.06868 -1.30251,-10e-4 -12.87352,4.24989 -20.70623,7.60708 -4.56483,1.95654 -11.27646,3.9789 -14.91473,4.49415 -5.85176,0.82871 -7.23645,1.48267 -12.00029,5.66754 -2.96188,2.60191 -7.97888,6.30574 -11.14888,8.23074 -5.7107,3.46779 -15.1364,11.17464 -15.1364,12.37607 0,0.34316 11.6449,0.62393 25.87754,0.62393 22.09834,0 26.06449,-0.22525 27.15761,-1.54238 z"
         id="path7735"
         inkscape:connector-curvature="0" />
      <path
         style="fill:#3a3a3a"
         d="m -966.99635,299.74885 c 0.0874,-1.90776 -0.1832,-5.49365 -0.60142,-7.96865 -0.70446,-4.169 -0.6467,-4.35722 0.78518,-2.55887 1.70435,2.14055 2.07981,10.16571 0.58611,12.52752 -0.66449,1.05067 -0.88359,0.48148 -0.76987,-2 z"
         id="path7729"
         inkscape:connector-curvature="0" />
    </g>
  </g>
</svg>
